<svg xmlns="http://www.w3.org/2000/svg" width="200.2" height="24.83" viewBox="0 0 200.2 24.83" fill="#fff">
    <path class="cls-1" d="M38.14,18.39a1,1,0,0,1,1.39,0c.45.37.42.92.11,1.52a3.5,3.5,0,0,1-3.41,1.94A3.35,3.35,0,0,1,33,19.39a5.77,5.77,0,0,1-4.48,2.46c-4,0-4.46-3-4.46-4.19s.13-1.57.13-2.62c0-2.23-.26-3.93-.26-5.38a2,2,0,0,1,3.93,0c0,3.15-.26,5.38-.26,7.21a1.56,1.56,0,0,0,1.57,1.7c1.86,0,3.15-2,3.67-4.84,0-2.23-.13-2.62-.13-4.07a2,2,0,0,1,3.93,0c0,3.15-.39,5.12-.39,8.26a.93.93,0,0,0,.92.92,1.3,1.3,0,0,0,1-.45"/>
    <path class="cls-1" d="M43,1.41a2.23,2.23,0,1,1-2.22,2.23A2.22,2.22,0,0,1,43,1.41M41.1,18.18c0-.91.14-1.83.14-3.14,0-2.23-.27-5.64-.27-5.64a2,2,0,1,1,3.94,0c0,3.41-.27,5.38-.27,8.52a.93.93,0,0,0,.92.92,1.32,1.32,0,0,0,1-.45,1,1,0,0,1,1.39,0c.44.37.42.92.1,1.52a3.49,3.49,0,0,1-3.41,1.94,3.58,3.58,0,0,1-3.54-3.67"/>
    <path class="cls-1" d="M57.75,18.18c0-1.57.26-3.14.26-5.76a1.54,1.54,0,0,0-1.7-1.71,3.31,3.31,0,0,0-3.54,3.54c0,2.07.13,4.32.13,5.51a1.84,1.84,0,0,1-3.67,0c0-1.19.13-3.41.13-4.72V9.4a1.71,1.71,0,0,1,3.41,0,6.19,6.19,0,0,1,4.45-2c4,0,4.46,3.05,4.46,4.2,0,2.1-.26,3.15-.26,6.29a.93.93,0,0,0,.91.92,1.31,1.31,0,0,0,1-.45,1,1,0,0,1,1.39,0c.45.37.42.92.11,1.52a3.5,3.5,0,0,1-3.41,1.94,3.68,3.68,0,0,1-3.67-3.67"/>
    <path class="cls-1" d="M74.21,18.26a1,1,0,0,1,1.39,0,1.15,1.15,0,0,1,.1,1.52,4.15,4.15,0,0,1-3.93,2.07c-3,0-4.72-1.81-4.72-4.06,0-.92.13-1.86.13-2.75,0-1.86,0-3.49-.07-5h-.58a1.18,1.18,0,0,1,0-2.36H67c0-1.08-.08-2.07-.08-3a2,2,0,0,1,3.93,0c0,.82,0,1.81,0,2.94,1.08,0,2,0,3.46,0a1.31,1.31,0,1,1,0,2.62c-1.49,0-2.44,0-3.54-.06-.08,2.15-.13,4.51-.13,6.61a1.85,1.85,0,0,0,1.84,2.1,2.28,2.28,0,0,0,1.78-.58"/>
    <path class="cls-1" d="M86.66,20a6.17,6.17,0,0,1-4.54,1.86C79,21.85,76.88,19,76.88,15c0-5.38,4.14-7.61,6.56-7.61a7.15,7.15,0,0,1,3.64.9,1.66,1.66,0,0,1,1.34-.63,1.7,1.7,0,0,1,1.7,1.7c0,3.41-.26,5.38-.26,8.52a.94.94,0,0,0,.91.92,1.31,1.31,0,0,0,1-.45,1,1,0,0,1,1.39,0c.45.37.42.92.11,1.52a3.5,3.5,0,0,1-3.41,1.94A3.7,3.7,0,0,1,86.66,20m-.34-4.56.13-4.19A4.75,4.75,0,0,0,84,10.71c-1.73,0-3.41,1-3.41,4.33,0,2.22,1,3.41,2.49,3.41a3,3,0,0,0,3.28-3"/>
    <path class="cls-1" d="M112.43,8.22a2,2,0,0,1-2-2c0-1.29-.81-2.28-2.78-2.28C106.21,4,104,4.6,104,7.2a3.16,3.16,0,0,0,1,2.46,19.28,19.28,0,0,1,3.62-.34c2,0,2.85.47,2.85,2s-.88,2-2.33,2a16.15,16.15,0,0,1-4.61-.66,3.36,3.36,0,0,0-1.29,2.91c0,2.12,2.15,3.19,5,3.19a7.72,7.72,0,0,0,5.93-2.22A1.14,1.14,0,0,1,115.83,18a9.42,9.42,0,0,1-8,3.83c-5,0-8.94-1.81-8.94-6.34A5.17,5.17,0,0,1,101.55,11,4.94,4.94,0,0,1,100,7.2C100,3,103.7.88,107.73.88c4.67,0,6.66,2.63,6.66,5.38a2,2,0,0,1-2,2"/>
    <path class="cls-1" d="M125.11,17.58c0-1-.63-1.42-2.49-1.75-3.43-.64-5-1.39-5-3.91,0-2.75,2.12-4.49,6-4.49a6.2,6.2,0,0,1,4.48,1.39,1.54,1.54,0,0,1,.55,1.26A1.83,1.83,0,0,1,126.79,12c-1.36,0-1.57-1.65-3.75-1.65-1.28,0-1.78.52-1.78,1.44s1.26,1.21,2.83,1.44c2.8.42,4.69,1.08,4.69,3.83,0,3.49-2.88,4.82-6.29,4.82a7.73,7.73,0,0,1-4.95-1.36,1.56,1.56,0,0,1-.55-1.26,1.83,1.83,0,0,1,1.81-1.89c1.65,0,1.75,1.63,4,1.63,1.49,0,2.36-.45,2.36-1.39"/>
    <path class="cls-1" d="M141.89,17.5a1,1,0,0,1,.86-.47,1.09,1.09,0,0,1,1.1,1c0,1.83-2.51,3.77-6,3.77-4.45,0-7.6-3-7.6-6.81,0-4.8,2.94-7.61,7.08-7.61,3.41,0,5.5,1.87,5.5,4.72,0,2.13-1.73,4.64-6.29,4.64a19.77,19.77,0,0,1-2.38-.13,3.58,3.58,0,0,0,3.69,2.44c2.23,0,3.31-.53,4.07-1.6m-8-3.17a12.75,12.75,0,0,0,2.07.16c2,0,2.88-1.13,2.88-2.34a1.57,1.57,0,0,0-1.57-1.57c-1.7,0-3.17,1.13-3.38,3.75"/>
    <path class="cls-1" d="M154.07,18.18c0-1.57.27-3.14.27-5.76a1.54,1.54,0,0,0-1.71-1.71,3.3,3.3,0,0,0-3.53,3.54c0,2.07.13,4.32.13,5.51a1.84,1.84,0,0,1-3.67,0c0-1.19.13-3.41.13-4.72V9.4a1.71,1.71,0,0,1,3.41,0,6.16,6.16,0,0,1,4.45-2c4,0,4.45,3.05,4.45,4.2,0,2.1-.26,3.15-.26,6.29a.93.93,0,0,0,.92.92,1.31,1.31,0,0,0,1-.45,1,1,0,0,1,1.39,0c.44.37.42.92.1,1.52a3.49,3.49,0,0,1-3.41,1.94,3.69,3.69,0,0,1-3.67-3.67"/>
    <path class="cls-1" d="M172.42,17.37a1.07,1.07,0,0,1,1.86,1.05c-.73,1.73-2.69,3.43-5.92,3.43A6.49,6.49,0,0,1,161.81,15c0-4.8,2.93-7.61,7.07-7.61a5.28,5.28,0,0,1,3.62,1.16,1.49,1.49,0,0,1,.5,1.2,1.8,1.8,0,0,1-1.94,1.79c-.73,0-1.13-1-2.18-1-1.83,0-3.4,1.31-3.4,4.46A3.63,3.63,0,0,0,169,19a3.89,3.89,0,0,0,3.4-1.6"/>
    <path class="cls-1" d="M177.93,1.41a2.23,2.23,0,1,1-2.23,2.23,2.22,2.22,0,0,1,2.23-2.23M176,18.18c0-.91.13-1.83.13-3.14,0-2.23-.26-5.64-.26-5.64a2,2,0,1,1,3.93,0c0,3.41-.26,5.38-.26,8.52a.92.92,0,0,0,.91.92,1.31,1.31,0,0,0,1-.45,1,1,0,0,1,1.39,0c.45.37.42.92.1,1.52a3.48,3.48,0,0,1-3.4,1.94A3.57,3.57,0,0,1,176,18.18"/>
    <path class="cls-1" d="M193.37,20a6.19,6.19,0,0,1-4.54,1.86c-3.14,0-5.24-2.88-5.24-6.81,0-5.38,4.14-7.61,6.55-7.61a7.15,7.15,0,0,1,3.64.9,1.67,1.67,0,0,1,1.34-.63,1.7,1.7,0,0,1,1.71,1.7c0,3.41-.27,5.38-.27,8.52a1,1,0,0,0,.92.92,1.34,1.34,0,0,0,1-.45,1,1,0,0,1,1.39,0c.44.37.42.92.1,1.52a3.49,3.49,0,0,1-3.41,1.94A3.68,3.68,0,0,1,193.37,20M193,15.43l.13-4.19a4.75,4.75,0,0,0-2.49-.53c-1.73,0-3.41,1-3.41,4.33,0,2.22,1,3.41,2.49,3.41a3.05,3.05,0,0,0,3.28-3"/>
    <path class="cls-1" d="M20.87,22.27a1.06,1.06,0,0,0-1.33-.41,3,3,0,0,1-3.11-.32,15.67,15.67,0,0,1-1.93-1.45c-1.63.26-3.29-1.07-4.92-.82l.12,0A19.06,19.06,0,0,0,14.6,24a5.07,5.07,0,0,0,6-.2,1.06,1.06,0,0,0,.31-1.48"/>
    <path class="cls-1" d="M11.08,18.55H11c-3.28,0-6.2-1.83-6.2-6.77,0-5.88,3.47-8.58,6.12-8.58h.21V0C5.36.11,0,4.09,0,11.79c0,5.7,4.23,10,10.54,10l.54,0Z"/>
    <path class="cls-1" d="M10.94,18.55h.13c3.28,0,6.2-1.83,6.2-6.77,0-5.88-3.47-8.58-6.11-8.58h-.22V0C16.66.11,22,4.09,22,11.79c0,5.7-4.23,10-10.54,10l-.54,0Z"/>
</svg>