<svg xmlns="http://www.w3.org/2000/svg" viewBox="0 0 1440 146.25">
    <path class="cls-1" fill="#ffe09f" d="M1679.91,488.71V613.18q-718.23,0-1436.46.07c-2.81,0-3.46-.63-3.45-3.42q.17-58,.07-115.9c2.74-2.43,6.32-2.92,9.63-3.88,18.6-5.35,37.42-9.74,56.43-13.46,20-3.91,40.17-6.31,60.41-8.28,5.32-.52,10.72-.27,16.09-.38,12.35-.26,24.72-.84,37.08-.43,19.44.66,38.88.6,58.28,3.07,22.81,2.91,45.38,7,68,11.16,23.81,4.42,47.52,9.33,71.16,14.58,10.83,2.4,21.68,4.8,32.5,7.31,21.27,4.94,42.65,9.43,63.86,14.61,16.26,4,32.62,7.46,48.86,11.47,15.62,3.87,31.4,7.12,47.1,10.7,16.19,3.68,32.42,7.17,48.61,10.82,11.8,2.66,23.7,4.92,35.55,7.38,14.18,2.95,28.4,5.67,42.61,8.47,17.27,3.41,34.61,6.35,52,8.94,19.76,2.94,39.51,6,59.38,7.79,14.77,1.35,29.52,3,44.4,3.54,16.45.59,32.92,1.23,49.37,1.72,8.42.24,16.91.49,25.39.07,5.08-.24,10.2-.44,15.3-.52,19.84-.31,39.64-1.37,59.45-2.7,19.07-1.28,38-3.4,57-5.69s37.79-5.36,56.59-8.82c30.58-5.62,61-12,91.34-18.78,15.46-3.44,30.78-7.51,46.2-11.17,18.1-4.31,36-9.42,54-14.19,9.51-2.53,19-5.44,28.42-8.18,14.5-4.2,29-8.58,43.42-12.89,12.09-3.59,24-7.7,36.06-11.4,7.15-2.21,14.34-4.3,21.51-6.47C1677.36,487.92,1678.7,487.68,1679.91,488.71Z" transform="translate(-240 -467)"/>
</svg>