<svg xmlns="http://www.w3.org/2000/svg" viewBox="0 0 1920 195">
    <path class="cls-1" fill="#0299da" d="M1918.75,539.5H1.24c-.94-1.71-.47-3.57-.47-5.36q-.06-32.52,0-65.05,0-37.36,0-74.72c0-2.48-.14-5,1.4-7.13,1.56-2,3.92-2.38,6.13-3.05a702,702,0,0,1,88.88-21.07c22-3.64,44.11-6.38,66.39-8.05,23.29-1.76,46.57-2.12,69.87-1.71a683.56,683.56,0,0,1,94.4,8.34c56.78,8.94,112.92,21,169,33.52C536,403.93,575.06,413,614.14,422.1Q673.72,436,733.4,449.49c40.77,9.17,81.61,18,122.63,26,28.59,5.6,57.26,10.8,86,15.33,31.4,4.95,62.92,9,94.62,11.61,21.89,1.78,43.81,2.9,65.74,4,31.31,1.57,62.63,1,93.91.53,21.58-.34,43.19-1.95,64.76-3.45,40.06-2.8,79.84-7.78,119.44-14.24,44.55-7.27,88.73-16.4,132.73-26.46q63.8-14.6,126.91-31.88c30.35-8.3,60.53-17.17,90.63-26.36,34.86-10.65,69.55-21.85,104.24-33.05,24.08-7.77,47.88-16.34,72-23.84,3.73-1.16,7.53-2.33,11.54-1.26,1.1,1.68.58,3.55.59,5.33q.06,24.82,0,49.66,0,66.36,0,132.71C1919.23,535.94,1919.69,537.79,1918.75,539.5Z" transform="translate(0 -344.5)"/>
    <path class="cls-3" fill="#0299da" d="M1918.75,539.5q0-69.06.07-138.13c.33-.67.64-.67.93,0q0,67.07-.06,134.14C1919.69,536.81,1920.82,538.61,1918.75,539.5Z" transform="translate(0 -344.5)"/>
    <path class="cls-4" fill="#0299da" d="M.24,388.47l3.92-.24c-2.74,1.77-2.95,4.43-2.95,7.37.06,24.45,0,48.9,0,73.34-.32.69-.64.69-1,0Z" transform="translate(0 -344.5)"/>
    <path class="cls-5" fill="#0299da" d="M.24,469h1q0,35.28,0,70.56c-2.06-.89-.93-2.69-.93-4C.22,513.34.24,491.14.24,469Z" transform="translate(0 -344.5)"/>
    <path class="cls-6" fill="#0299da" d="M1919.75,401.39l-.93,0q0-24.21-.09-48.42c0-2.11.34-4.31-1-6.22l2-1Z" transform="translate(0 -344.5)"/>
</svg>