<svg xmlns="http://www.w3.org/2000/svg" viewBox="0 0 1440 228.75">
    <path class="cls-2" fill="#ffe09f" d="M240,438.54c7.47-.24,14.94-.69,22.41-.7,36.75-.06,73.49-.31,110.23.17,13.52.18,27,2.06,40.51,3.38q17.64,1.73,35.21,4c10.36,1.32,20.72,2.69,31,4.51,21.3,3.79,42.58,7.69,63.79,11.93q19.73,3.94,39.23,9.06c20.3,5.33,40.52,11,60.7,16.79,12.44,3.57,24.84,7.33,37.08,11.52,20.22,6.92,40.42,13.95,60.41,21.5,18.62,7,37.13,14.42,55.39,22.33,19.87,8.62,39.35,18.13,59.09,27,14.3,6.45,28.66,12.77,43.17,18.71,15,6.13,30,12.08,45.3,17.47,16.41,5.79,33,11.1,49.65,16.13,15.46,4.67,31,9,46.7,12.89,19.31,4.75,38.7,9.38,58.24,13,20,3.75,40.22,6.63,60.43,9.21,16.14,2.06,32.43,3,48.64,4.63,24,2.39,48.09,2.61,72.16,2,16.66-.42,33.38-1.17,49.93-3.06,20.86-2.39,41.7-5.36,62.28-9.43A537.36,537.36,0,0,0,1450.15,637c19.78-6.28,39.12-14.11,58.21-22.29a372.11,372.11,0,0,0,60.43-33.27c19.37-13,37.87-27,54.86-43,6.82-6.4,13.28-13.18,20.25-19.4,11.21-10,22.72-19.72,34.12-29.52a7.94,7.94,0,0,1,2-.9V665.75H240Z" transform="translate(-240 -437)"/>
</svg>